<svg width="24" height="24" viewBox="0 0 24 24" fill="none" xmlns="http://www.w3.org/2000/svg">
<path d="M11.4 18.1511L18.796 10.7551C17.5517 10.2356 16.4216 9.47656 15.47 8.52114C14.5142 7.56935 13.7547 6.43891 13.235 5.19414L5.83902 12.5901C5.26202 13.1671 4.97302 13.4561 4.72502 13.7741C4.43213 14.1494 4.18098 14.5555 3.97602 14.9851C3.80302 15.3491 3.67402 15.7371 3.41602 16.5111L2.05402 20.5941C1.99133 20.7811 1.98203 20.9818 2.02716 21.1738C2.07229 21.3657 2.17007 21.5412 2.30949 21.6807C2.44891 21.8201 2.62446 21.9179 2.81641 21.963C3.00835 22.0081 3.20907 21.9988 3.39602 21.9361L7.47902 20.5741C8.25402 20.3161 8.64102 20.1871 9.00502 20.0141C9.43502 19.8091 9.84102 19.5581 10.216 19.2651C10.534 19.0171 10.823 18.7281 11.4 18.1511ZM20.848 8.70314C21.5855 7.9657 21.9997 6.96553 21.9997 5.92264C21.9997 4.87975 21.5855 3.87957 20.848 3.14214C20.1106 2.4047 19.1104 1.99042 18.0675 1.99042C17.0246 1.99042 16.0245 2.4047 15.287 3.14214L14.4 4.02914L14.438 4.14014C14.8751 5.39086 15.5904 6.52604 16.53 7.46014C17.492 8.42784 18.667 9.15725 19.961 9.59014L20.848 8.70314Z" fill="#1D7BF5"/>
</svg>
