<svg width="24" height="24" viewBox="0 0 24 24" fill="none" xmlns="http://www.w3.org/2000/svg">
<path d="M18.2582 3.50803C18.3952 3.5648 18.5124 3.66094 18.5948 3.78429C18.6772 3.90765 18.7212 4.05267 18.7212 4.20103V8.44403C18.7212 8.64294 18.6422 8.8337 18.5015 8.97436C18.3609 9.11501 18.1701 9.19403 17.9712 9.19403H13.7282C13.5799 9.1939 13.4351 9.14984 13.3118 9.06742C13.1886 8.985 13.0926 8.86791 13.0359 8.73095C12.9792 8.59399 12.9643 8.44329 12.9932 8.29789C13.0221 8.15249 13.0934 8.01891 13.1982 7.91403L14.8002 6.31003C13.3286 5.6938 11.6949 5.58017 10.1522 5.98673C8.60953 6.39328 7.24402 7.29734 6.26731 8.55877C5.2906 9.82021 4.75723 11.3686 4.74988 12.9639C4.74252 14.5593 5.26159 16.1125 6.22662 17.3829C7.19166 18.6533 8.54878 19.5699 10.0877 19.9907C11.6265 20.4114 13.2612 20.3129 14.7384 19.7102C16.2156 19.1076 17.4527 18.0346 18.2581 16.6574C19.0635 15.2803 19.3922 13.6759 19.1932 12.093C19.1726 11.8978 19.2293 11.7022 19.3513 11.5484C19.4733 11.3945 19.6507 11.2946 19.8455 11.2702C20.0403 11.2457 20.237 11.2986 20.3932 11.4174C20.5494 11.5363 20.6528 11.7118 20.6812 11.906C20.9246 13.8422 20.5138 15.8042 19.5141 17.4801C18.5144 19.1559 16.9832 20.4496 15.1638 21.1553C13.3445 21.861 11.3415 21.9382 9.47317 21.3748C7.60487 20.8114 5.97852 19.6396 4.85267 18.0457C3.72681 16.4519 3.16606 14.5274 3.25957 12.5782C3.35307 10.629 4.09546 8.76707 5.36871 7.28828C6.64196 5.80948 8.37301 4.79875 10.2867 4.41676C12.2003 4.03476 14.1867 4.30342 15.9302 5.18003L17.4402 3.67003C17.5451 3.5653 17.6787 3.49402 17.8241 3.46519C17.9695 3.43636 18.1212 3.45126 18.2582 3.50803Z" fill="#1D7BF5"/>
</svg>
