<svg width="21" height="18" viewBox="0 0 21 18" fill="none" xmlns="http://www.w3.org/2000/svg">
<path d="M7.29076 8.5C9.4999 8.5 11.2908 6.70914 11.2908 4.5C11.2908 2.29086 9.4999 0.5 7.29076 0.5C5.08162 0.5 3.29076 2.29086 3.29076 4.5C3.29076 6.70914 5.08162 8.5 7.29076 8.5Z" fill="#1D7BF5"/>
<path d="M7 18C13 18 9.5 18 9 14C8.5 10 10.866 10 7 10C3.13401 10 0 11.7909 0 14C0 16.2091 3.13401 18 7 18Z" fill="#1D7BF5"/>
<path opacity="0.32" fill-rule="evenodd" clip-rule="evenodd" d="M16.53 7.0836C16.3157 7 16.0436 7 15.5 7C14.9564 7 14.6843 7 14.4701 7.0836C14.185 7.19482 13.958 7.40907 13.8391 7.67925C13.7847 7.8019 13.7638 7.94545 13.7551 8.1539C13.7513 8.30493 13.7069 8.45253 13.6263 8.58275C13.5457 8.71296 13.4314 8.82148 13.2943 8.89805C13.1546 8.97181 12.9976 9.01088 12.8378 9.01165C12.678 9.01242 12.5206 8.97486 12.3802 8.90245C12.1845 8.80455 12.0427 8.75065 11.9026 8.73305C11.596 8.69482 11.286 8.77309 11.0399 8.95085C10.8558 9.08395 10.7198 9.30615 10.4483 9.75C10.1762 10.1939 10.0407 10.4155 10.01 10.6327C9.9695 10.922 10.0529 11.2146 10.2416 11.4462C10.3273 11.5518 10.4483 11.6404 10.6353 11.7515C10.9114 11.9148 11.0886 12.1931 11.0886 12.5C11.0886 12.8069 10.9114 13.0852 10.6358 13.248C10.4483 13.3597 10.3273 13.4482 10.241 13.5538C10.1479 13.6682 10.0795 13.7989 10.0398 13.9386C10.0002 14.0782 9.99005 14.2239 10.01 14.3673C10.0407 14.584 10.1762 14.8061 10.4483 15.25L10.4515 15.2553C10.7215 15.6956 10.8566 15.916 11.0399 16.0491C11.2854 16.2268 11.5957 16.3049 11.9026 16.267C12.0427 16.2494 12.1845 16.1955 12.3802 16.0976C12.5207 16.025 12.6782 15.9874 12.8381 15.9882C12.998 15.989 13.1551 16.0281 13.2949 16.1019C13.5762 16.256 13.743 16.5392 13.7551 16.8461C13.7638 17.0551 13.7847 17.1981 13.8391 17.3208C13.9572 17.5903 14.1841 17.8048 14.4701 17.9164C14.6843 18 14.9564 18 15.5 18C16.0436 18 16.3157 18 16.53 17.9164C16.8151 17.8052 17.0421 17.5909 17.161 17.3208C17.2154 17.1981 17.2362 17.0551 17.2449 16.8461C17.2565 16.5392 17.4238 16.2554 17.7058 16.1019C17.8454 16.0282 18.0024 15.9891 18.1622 15.9884C18.322 15.9876 18.4794 16.0251 18.6199 16.0976C18.8156 16.1955 18.9574 16.2494 19.0975 16.267C19.4043 16.3055 19.7147 16.2268 19.9601 16.0491C20.1442 15.916 20.2803 15.6939 20.5518 15.25C20.8239 14.8061 20.9594 14.5845 20.99 14.3673C21.0099 14.2239 20.9997 14.0781 20.96 13.9385C20.9202 13.7989 20.8517 13.6681 20.7585 13.5538C20.6728 13.4482 20.5518 13.3596 20.3648 13.2485C20.0886 13.0852 19.9115 12.8069 19.9115 12.5C19.9115 12.1931 20.0886 11.9148 20.3642 11.752C20.5518 11.6404 20.6728 11.5518 20.759 11.4462C20.8522 11.3318 20.9206 11.2011 20.9602 11.0614C20.9999 10.9218 21.01 10.7761 20.99 10.6327C20.9594 10.416 20.8239 10.1939 20.5518 9.75L20.5485 9.74469C20.2786 9.30439 20.1435 9.08397 19.9601 8.95085C19.714 8.77309 19.404 8.69482 19.0975 8.73305C18.9574 8.75065 18.8156 8.80455 18.6199 8.90245C18.4794 8.97496 18.3219 9.01257 18.1619 9.0118C18.002 9.01103 17.8449 8.9719 17.7052 8.89805C17.5682 8.82141 17.4541 8.71286 17.3735 8.58265C17.293 8.45244 17.2487 8.30488 17.2449 8.1539C17.2362 7.9449 17.2154 7.8019 17.161 7.67925C17.1021 7.54545 17.0161 7.42399 16.9078 7.32178C16.7996 7.21958 16.6712 7.13864 16.53 7.0836ZM17.2497 12.5C17.2497 13.4113 16.4658 14.15 15.4996 14.15C14.5328 14.15 13.7495 13.4113 13.7495 12.5C13.7495 11.5887 14.5328 10.85 15.4996 10.85C16.4664 10.85 17.2497 11.5887 17.2497 12.5Z" fill="#1D7BF5"/>
</svg>
