<svg width="120" height="120" viewBox="0 0 120 120" fill="none" xmlns="http://www.w3.org/2000/svg">
<g opacity="0.48">
<path fill-rule="evenodd" clip-rule="evenodd" d="M21.1902 86.066L22.6459 87.5218L24.1062 86.062L24.7302 86.6858L23.2696 88.1454L24.7262 89.6011L24.1005 90.2266L22.6438 88.7711L21.1845 90.2306L20.5605 89.6068L22.0201 88.1475L20.5645 86.6915L21.1902 86.066Z" fill="url(#paint0_linear_2575_2853367)"/>
<path opacity="0.48" fill-rule="evenodd" clip-rule="evenodd" d="M87.2381 12.7676L88.6937 14.2234L90.1541 12.7635L90.7781 13.3874L89.3175 14.8469L90.7741 16.3026L90.1483 16.9282L88.6916 15.4726L87.2323 16.9322L86.6083 16.3084L88.0679 14.8491L86.6124 13.3931L87.2381 12.7676Z" fill="#919EAB"/>
<path opacity="0.72" d="M61.4784 104.835C61.7522 104.562 62.1233 104.409 62.5101 104.409C62.897 104.409 63.268 104.562 63.5419 104.835L64.5809 105.874C64.717 106.009 64.8258 106.171 64.8995 106.348C64.9734 106.526 65.0115 106.716 65.0115 106.909C65.0115 107.101 64.9734 107.291 64.8995 107.469C64.8258 107.646 64.7178 107.807 64.5817 107.943L63.5419 108.982C63.268 109.255 62.897 109.409 62.5101 109.409C62.1233 109.409 61.7522 109.255 61.4784 108.982L60.4393 107.943C60.3032 107.808 60.1945 107.646 60.1207 107.469C60.0468 107.291 60.0088 107.101 60.0088 106.909C60.0088 106.716 60.0468 106.526 60.1207 106.348C60.1944 106.171 60.3024 106.01 60.4385 105.875L61.4784 104.835Z" fill="#919EAB"/>
<path fill-rule="evenodd" clip-rule="evenodd" d="M96.6978 39.0406C96.6977 39.0407 96.6979 39.0406 96.6978 39.0406L95.6585 40.0797L95.2196 39.6407L95.6571 40.081C95.6368 40.1012 95.6207 40.1252 95.6097 40.1517C95.5987 40.1781 95.593 40.2064 95.593 40.235C95.593 40.2637 95.5987 40.292 95.6097 40.3184C95.6207 40.3449 95.6368 40.3689 95.6571 40.3891L95.6585 40.3904L96.6978 41.4295C96.6977 41.4294 96.6979 41.4295 96.6978 41.4295C96.739 41.4704 96.7948 41.4936 96.8529 41.4936C96.911 41.4936 96.9667 41.4706 97.0078 41.4297C97.0077 41.4298 97.0079 41.4296 97.0078 41.4297L98.0487 40.3891C98.069 40.3689 98.0851 40.3449 98.0961 40.3184C98.1072 40.2919 98.1128 40.2636 98.1128 40.235C98.1128 40.2065 98.1072 40.1782 98.0961 40.1517C98.0851 40.1252 98.069 40.1012 98.0487 40.081L98.0473 40.0797L97.008 39.0406C97.008 39.0406 97.0081 39.0407 97.008 39.0406C96.9669 38.9997 96.911 38.9765 96.8529 38.9765C96.7948 38.9765 96.739 38.9997 96.6978 39.0406ZM94.7813 39.2011L95.8211 38.1616C96.095 37.8885 96.466 37.735 96.8529 37.735C97.2397 37.735 97.6108 37.8885 97.8847 38.1616L97.8852 38.1621L98.9237 39.2004C98.924 39.2006 98.9242 39.2008 98.9244 39.2011C99.0606 39.3365 99.1686 39.4975 99.2423 39.6747C99.3162 39.8522 99.3543 40.0426 99.3543 40.235C99.3543 40.4274 99.3162 40.6179 99.2423 40.7954C99.1686 40.9726 99.0606 41.1335 98.9245 41.269C98.9242 41.2692 98.924 41.2695 98.9237 41.2697L97.8847 42.3085C97.6108 42.5816 97.2397 42.735 96.8529 42.735C96.466 42.735 96.095 42.5816 95.8211 42.3085L94.7821 41.2697C94.7818 41.2695 94.7816 41.2692 94.7813 41.2689C94.6452 41.1335 94.5372 40.9726 94.4635 40.7954C94.3896 40.6178 94.3516 40.4273 94.3516 40.235C94.3516 40.0427 94.3896 39.8523 94.4635 39.6747C94.5372 39.4975 94.6452 39.3366 94.7813 39.2011Z" fill="#919EAB"/>
<path opacity="0.48" fill-rule="evenodd" clip-rule="evenodd" d="M104.552 66.3174C104.701 66.2789 104.858 66.278 105.008 66.3153C105.173 66.3561 105.322 66.4409 105.442 66.5601C105.561 66.6797 105.646 66.8295 105.687 66.9935C105.724 67.1437 105.723 67.3005 105.685 67.4497L105.109 70.5411C105.062 70.7839 104.909 71.1334 104.522 71.2523C104.135 71.3714 103.812 71.1678 103.638 70.9932L101.009 68.3653C100.831 68.1888 100.628 67.8651 100.748 67.4773C100.868 67.0899 101.219 66.9375 101.464 66.8922C101.465 66.8921 101.465 66.8921 101.465 66.892L104.552 66.3174ZM104.448 67.5539L102.291 67.9554L104.046 69.7099L104.448 67.5539Z" fill="#919EAB"/>
<path opacity="0.8" fill-rule="evenodd" clip-rule="evenodd" d="M102.46 94.266C102.609 94.2275 102.766 94.2266 102.916 94.2639C103.08 94.3047 103.23 94.3895 103.349 94.5088C103.469 94.6283 103.554 94.7781 103.594 94.9421C103.632 95.0923 103.631 95.2491 103.592 95.3983L103.016 98.4897C102.97 98.7325 102.817 99.082 102.43 99.201C102.042 99.32 101.72 99.1164 101.545 98.9419L98.9167 96.3139C98.7386 96.1374 98.5356 95.8137 98.6558 95.426C98.776 95.0385 99.1263 94.8861 99.3721 94.8408C99.3724 94.8408 99.3727 94.8407 99.373 94.8407L102.46 94.266ZM102.356 95.5026L100.199 95.904L101.954 97.6586L102.356 95.5026Z" fill="#637381"/>
<path opacity="0.8" fill-rule="evenodd" clip-rule="evenodd" d="M12.5004 72.4729C12.3186 72.4729 12.1408 72.5269 11.9896 72.6279C11.8383 72.729 11.7205 72.8724 11.651 73.0402C11.5814 73.2081 11.5632 73.393 11.5987 73.5712C11.6341 73.7494 11.7217 73.9132 11.8502 74.0417C11.9787 74.1702 12.1425 74.2577 12.321 74.2932C12.4996 74.3287 12.6845 74.3105 12.8523 74.241C13.0203 74.1715 13.1639 74.0536 13.265 73.9024C13.366 73.7513 13.4199 73.5736 13.4199 73.3919C13.4199 73.1482 13.323 72.9145 13.1506 72.7421C12.9783 72.5698 12.7444 72.4729 12.5004 72.4729ZM11.1113 71.3132C11.5225 71.0386 12.0059 70.8919 12.5004 70.8919C13.1635 70.8919 13.7995 71.1552 14.2684 71.624C14.7374 72.0929 15.0009 72.7288 15.0009 73.3919C15.0009 73.8864 14.8542 74.3698 14.5794 74.7809C14.3047 75.1919 13.9142 75.5125 13.4572 75.7017C13.0002 75.891 12.4975 75.9403 12.0127 75.8438C11.5278 75.7474 11.0822 75.5095 10.7324 75.1598C10.3827 74.8102 10.1446 74.3647 10.0481 73.8797C9.95156 73.3947 10.0011 72.8919 10.1904 72.4351C10.3797 71.9782 10.7002 71.5878 11.1113 71.3132Z" fill="#637381"/>
<path opacity="0.8" fill-rule="evenodd" clip-rule="evenodd" d="M54.5424 18.4018C54.3606 18.4018 54.1828 18.4557 54.0316 18.5567C53.8803 18.6578 53.7625 18.8013 53.693 18.9691C53.6234 19.137 53.6052 19.3218 53.6407 19.5C53.6761 19.6783 53.7637 19.842 53.8922 19.9705C54.0207 20.099 54.1845 20.1865 54.363 20.222C54.5416 20.2575 54.7265 20.2393 54.8943 20.1698C55.0623 20.1003 55.2059 19.9824 55.307 19.8312C55.408 19.6801 55.4619 19.5025 55.4619 19.3207C55.4619 19.0771 55.365 18.8433 55.1926 18.671C55.0203 18.4986 54.7864 18.4018 54.5424 18.4018ZM53.1533 17.2421C53.5645 16.9674 54.0479 16.8207 54.5424 16.8207C55.2055 16.8207 55.8415 17.084 56.3104 17.5529C56.7794 18.0217 57.0429 18.6577 57.0429 19.3207C57.0429 19.8152 56.8962 20.2986 56.6214 20.7097C56.3467 21.1208 55.9562 21.4413 55.4992 21.6306C55.0422 21.8198 54.5395 21.8691 54.0547 21.7727C53.5698 21.6763 53.1242 21.4383 52.7744 21.0886C52.4247 20.739 52.1865 20.2935 52.09 19.8086C51.9936 19.3236 52.0431 18.8208 52.2324 18.3639C52.4217 17.907 52.7422 17.5167 53.1533 17.2421Z" fill="#637381"/>
</g>
<g opacity="0.48">
<path d="M28.3076 51.009C28.7263 49.1403 30.5355 48.2808 32.4482 48.1861C36.2621 47.9973 44.3768 47.7346 60 47.7346C75.6232 47.7346 83.7379 47.9973 87.5518 48.1861C89.4645 48.2808 91.2738 49.1403 91.6925 51.009C91.8731 51.8151 92 52.8415 92 54.1346C92 55.4277 91.8731 56.4541 91.6925 57.2602C91.2738 59.1288 89.4645 59.9884 87.5518 60.0831C83.7379 60.2719 75.6232 60.5346 60 60.5346C44.3768 60.5346 36.2621 60.2719 32.4482 60.0831C30.5355 59.9884 28.7263 59.1288 28.3076 57.2602C28.1269 56.4541 28 55.4277 28 54.1346C28 52.8415 28.1269 51.8151 28.3076 51.009Z" fill="url(#paint1_linear_2575_2853367)"/>
<g opacity="0.48">
<path d="M62.9608 68.7745C62.9135 68.1534 62.6597 67.5497 62.0871 67.3043C61.6328 67.1096 60.958 66.9347 59.9997 66.9347C59.0543 66.9347 58.3847 67.1049 57.9306 67.2965C57.3455 67.5433 57.0893 68.1579 57.0445 68.7913C56.8909 70.9619 56.5911 76.3987 57.0242 81.1217C57.0797 81.7265 57.3327 82.3118 57.8893 82.5552C58.3437 82.7537 59.0252 82.9347 59.9997 82.9347C60.958 82.9347 61.6328 82.7598 62.0871 82.5651C62.6597 82.3197 62.9156 81.7155 62.9677 81.0949C63.4063 75.8709 63.1168 70.8187 62.9608 68.7745Z" fill="#C4CDD5"/>
<path d="M77.5207 69.3673C77.5901 68.3582 77.0644 67.3753 76.0837 67.1269C74.7476 66.7883 73.505 66.9526 72.6076 67.1952C71.6837 67.4449 71.1 68.2819 70.9434 69.2259C70.0604 74.5509 69.7576 78.4523 69.6538 80.5014C69.6026 81.5117 70.1351 82.4941 71.1157 82.7425C72.425 83.0744 73.6445 82.9232 74.5375 82.6888C75.4943 82.4374 76.0863 81.5571 76.2266 80.5779C77.0693 74.6904 77.3949 71.1917 77.5207 69.3673Z" fill="#C4CDD5"/>
<path d="M42.4788 69.3673C42.4093 68.3582 42.9351 67.3753 43.9157 67.1269C45.2519 66.7883 46.4944 66.9526 47.3919 67.1952C48.3157 67.4449 48.8994 68.2819 49.056 69.2259C49.9391 74.5509 50.2418 78.4523 50.3456 80.5014C50.3968 81.5117 49.8644 82.4941 48.8837 82.7425C47.5744 83.0744 46.3549 82.9232 45.462 82.6888C44.5052 82.4374 43.9132 81.5571 43.7728 80.5779C42.9301 74.6904 42.6045 71.1917 42.4788 69.3673Z" fill="#C4CDD5"/>
</g>
<g filter="url(#filter0_di_2575_2853367)">
<path fill-rule="evenodd" clip-rule="evenodd" d="M31.8315 60.0252C32.525 65.7032 33.8412 74.7144 36.0298 83.5653C36.9085 87.1189 39.8862 89.7112 43.5275 90.0869C47.5531 90.5022 53.3439 90.9349 60.0001 90.9349C66.6563 90.9349 72.4472 90.5022 76.4727 90.0869C80.114 89.7112 83.0918 87.1189 83.9703 83.5653C86.159 74.7144 87.4753 65.7032 88.1687 60.0252C87.9654 60.0537 87.7592 60.073 87.5518 60.0833C83.7379 60.2721 75.6232 60.5348 60 60.5348C44.3768 60.5348 36.262 60.2721 32.4482 60.0833C32.2409 60.073 32.0348 60.0538 31.8315 60.0252ZM62.0875 67.3044C62.6601 67.5498 62.9139 68.1535 62.9613 68.7746C63.1173 70.8188 63.4067 75.871 62.9681 81.095C62.916 81.7156 62.6601 82.3198 62.0875 82.5652C61.6333 82.7599 60.9584 82.9348 60.0001 82.9348C59.0256 82.9348 58.3441 82.7538 57.8897 82.5553C57.3331 82.3119 57.0801 81.7266 57.0246 81.1218C56.5915 76.3988 56.8913 70.962 57.0449 68.7914C57.0897 68.158 57.3459 67.5434 57.931 67.2966C58.3851 67.105 59.0547 66.9348 60.0001 66.9348C60.9584 66.9348 61.6333 67.1097 62.0875 67.3044ZM76.0841 67.127C77.0648 67.3754 77.5905 68.3583 77.5211 69.3674C77.3953 71.1918 77.0697 74.6905 76.227 80.578C76.0867 81.5572 75.4947 82.4375 74.5379 82.6889C73.6449 82.9233 72.4254 83.0745 71.1161 82.7426C70.1355 82.4942 69.603 81.5118 69.6542 80.5015C69.7581 78.4524 70.0608 74.551 70.9438 69.226C71.1005 68.282 71.6841 67.445 72.608 67.1953C73.5054 66.9527 74.748 66.7884 76.0841 67.127ZM42.4792 69.3674C42.4097 68.3583 42.9355 67.3754 43.9161 67.127C45.2523 66.7884 46.4949 66.9527 47.3923 67.1953C48.3161 67.445 48.8998 68.282 49.0565 69.226C49.9395 74.551 50.2422 78.4524 50.3461 80.5015C50.3973 81.5118 49.8648 82.4942 48.8841 82.7426C47.5749 83.0745 46.3553 82.9233 45.4624 82.6889C44.5056 82.4375 43.9136 81.5572 43.7733 80.578C42.9305 74.6905 42.6049 71.1918 42.4792 69.3674Z" fill="#919EAB"/>
</g>
<g opacity="0.48" filter="url(#filter1_di_2575_2853367)">
<path d="M40.3501 47.9205C44.39 47.8286 49.7979 47.7547 56.9484 47.7382C56.5169 46.6834 55.8259 45.6871 54.9526 44.8528C51.3659 41.4263 45.7756 36.2309 40.0035 31.432C37.958 29.7314 34.9577 29.4272 32.9425 31.1635C32.8058 31.2813 32.6808 31.3958 32.5715 31.5051C32.4622 31.6144 32.3477 31.7394 32.2299 31.8761C30.4936 33.8913 30.7978 36.8915 32.4984 38.937C35.1148 42.0839 37.849 45.1769 40.3501 47.9205Z" fill="#919EAB"/>
<path d="M79.6501 47.9205C82.1512 45.1769 84.8854 42.0839 87.5019 38.937C89.2023 36.8915 89.5067 33.8913 87.7703 31.8761C87.6526 31.7394 87.538 31.6144 87.4287 31.5051C87.3193 31.3958 87.1943 31.2813 87.0577 31.1635C85.0425 29.4272 82.0422 29.7314 79.9967 31.432C74.2246 36.2309 68.6343 41.4263 65.0476 44.8528C64.1743 45.6871 63.4833 46.6834 63.0518 47.7382C70.2024 47.7547 75.6102 47.8286 79.6501 47.9205Z" fill="#919EAB"/>
</g>
</g>
<defs>
<filter id="filter0_di_2575_2853367" x="23.8315" y="52.0252" width="88.3369" height="62.9097" filterUnits="userSpaceOnUse" color-interpolation-filters="sRGB">
<feFlood flood-opacity="0" result="BackgroundImageFix"/>
<feColorMatrix in="SourceAlpha" type="matrix" values="0 0 0 0 0 0 0 0 0 0 0 0 0 0 0 0 0 0 127 0" result="hardAlpha"/>
<feOffset dx="8" dy="8"/>
<feGaussianBlur stdDeviation="8"/>
<feColorMatrix type="matrix" values="0 0 0 0 0.270588 0 0 0 0 0.309804 0 0 0 0 0.356863 0 0 0 0.16 0"/>
<feBlend mode="normal" in2="BackgroundImageFix" result="effect1_dropShadow_2575_2853367"/>
<feBlend mode="normal" in="SourceGraphic" in2="effect1_dropShadow_2575_2853367" result="shape"/>
<feColorMatrix in="SourceAlpha" type="matrix" values="0 0 0 0 0 0 0 0 0 0 0 0 0 0 0 0 0 0 127 0" result="hardAlpha"/>
<feOffset dx="-2" dy="-2"/>
<feGaussianBlur stdDeviation="2"/>
<feComposite in2="hardAlpha" operator="arithmetic" k2="-1" k3="1"/>
<feColorMatrix type="matrix" values="0 0 0 0 0.270588 0 0 0 0 0.309804 0 0 0 0 0.356863 0 0 0 0.48 0"/>
<feBlend mode="normal" in2="shape" result="effect2_innerShadow_2575_2853367"/>
</filter>
<filter id="filter1_di_2575_2853367" x="23.0664" y="22" width="89.8672" height="49.9205" filterUnits="userSpaceOnUse" color-interpolation-filters="sRGB">
<feFlood flood-opacity="0" result="BackgroundImageFix"/>
<feColorMatrix in="SourceAlpha" type="matrix" values="0 0 0 0 0 0 0 0 0 0 0 0 0 0 0 0 0 0 127 0" result="hardAlpha"/>
<feOffset dx="8" dy="8"/>
<feGaussianBlur stdDeviation="8"/>
<feColorMatrix type="matrix" values="0 0 0 0 0.270588 0 0 0 0 0.309804 0 0 0 0 0.356863 0 0 0 0.16 0"/>
<feBlend mode="normal" in2="BackgroundImageFix" result="effect1_dropShadow_2575_2853367"/>
<feBlend mode="normal" in="SourceGraphic" in2="effect1_dropShadow_2575_2853367" result="shape"/>
<feColorMatrix in="SourceAlpha" type="matrix" values="0 0 0 0 0 0 0 0 0 0 0 0 0 0 0 0 0 0 127 0" result="hardAlpha"/>
<feOffset dx="-2" dy="-2"/>
<feGaussianBlur stdDeviation="2"/>
<feComposite in2="hardAlpha" operator="arithmetic" k2="-1" k3="1"/>
<feColorMatrix type="matrix" values="0 0 0 0 0.270588 0 0 0 0 0.309804 0 0 0 0 0.356863 0 0 0 0.48 0"/>
<feBlend mode="normal" in2="shape" result="effect2_innerShadow_2575_2853367"/>
</filter>
<linearGradient id="paint0_linear_2575_2853367" x1="21.2797" y1="90.2379" x2="25.4036" y2="88.6212" gradientUnits="userSpaceOnUse">
<stop stop-color="white" stop-opacity="0.16"/>
<stop offset="1" stop-color="white" stop-opacity="0.64"/>
</linearGradient>
<linearGradient id="paint1_linear_2575_2853367" x1="28.7933" y1="55.4495" x2="39.533" y2="78.8429" gradientUnits="userSpaceOnUse">
<stop stop-color="white" stop-opacity="0.16"/>
<stop offset="1" stop-color="white" stop-opacity="0.64"/>
</linearGradient>
</defs>
</svg>
