<svg width="20" height="20" viewBox="0 0 20 20" fill="none" xmlns="http://www.w3.org/2000/svg">
<path opacity="0.32" d="M13.1497 3.75H4.35C3.55958 3.75 2.9165 4.21714 2.9165 4.79202C2.9165 5.36619 3.55958 5.83333 4.35 5.83333H13.1497C13.9401 5.83333 14.5832 5.36619 14.5832 4.79202C14.5832 4.21712 13.9401 3.75 13.1497 3.75Z" fill="#637381"/>
<path d="M15.6497 8.95837H6.85C6.05958 8.95837 5.4165 9.42551 5.4165 10.0004C5.4165 10.5746 6.05958 11.0417 6.85 11.0417H15.6497C16.4401 11.0417 17.0832 10.5746 17.0832 10.0004C17.0832 9.42549 16.4401 8.95837 15.6497 8.95837Z" fill="#637381"/>
<path d="M13.1497 14.1667H4.35C3.55958 14.1667 2.9165 14.6338 2.9165 15.2087C2.9165 15.7829 3.55958 16.25 4.35 16.25H13.1497C13.9401 16.25 14.5832 15.7829 14.5832 15.2087C14.5832 14.6338 13.9401 14.1667 13.1497 14.1667Z" fill="#637381"/>
</svg>
